<svg width="32" height="27" viewBox="0 0 32 27" fill="none" xmlns="http://www.w3.org/2000/svg">
<path d="M14.3019 23.402C13.8331 22.8255 13.3732 21.7304 13.1875 20.8018C15.602 20.8018 18.1397 20.8853 20.0595 21.3589C21.0205 21.596 21.4671 22.7498 22.2883 23.6632C21.2712 24.1642 16.2476 24.6828 14.3019 23.402Z" fill="#240337"/>
<path d="M19.2535 13.4511C17.4268 13.8296 15.585 14.1038 13.7357 14.3098C11.6456 14.5426 9.54878 14.7142 7.36545 14.7994C5.43312 6.62313 13.0229 -0.555008 19.0421 0.033863C16.9202 4.51002 16.5198 8.961 19.2535 13.4511Z" fill="#240337"/>
<path d="M27.9661 18.9457C27.1283 18.3446 26.4057 17.6835 25.6758 16.8936C26.68 16.9161 27.6916 17.0675 28.9957 17.2627C28.6399 17.8943 28.3606 18.39 27.9661 18.9457Z" fill="#240337"/>
<path d="M14.5087 23.356C14.4032 24.2338 14.3779 25.1329 14.1527 25.9787C14.0629 26.3161 13.5314 26.5359 13.201 26.8092C13.1065 26.4401 12.9842 26.0756 12.9238 25.7011C12.8279 25.107 12.8563 24.4817 12.6876 23.9124C11.7932 20.894 9.66336 20.5576 6.88514 22.5035C4.99143 23.8298 3.10655 25.1701 1.17784 26.4437C0.900109 26.6271 0.398175 26.4709 0 26.4719C0.213175 26.1076 0.364614 25.6831 0.650514 25.3897C1.72655 24.2851 3.02765 23.3495 3.89323 22.106C4.60317 21.0862 4.81453 19.7192 5.35387 18.206C4.08752 18.1461 3.30726 18.115 2.52772 18.0712C1.11292 17.9916 0.378855 17.4024 1.09087 15.9361C1.50362 15.0861 1.80486 14.5922 2.11887 14.0543C2.16677 13.9723 1.8435 13.5177 1.89244 13.4322C2.15113 13.4545 2.95481 13.5987 3.19255 13.618C4.44306 13.7193 5.26581 14.0367 6.53571 14.1751C8.83265 14.0292 11.365 13.4881 13.4551 13.2553C15.3044 13.0492 17.1462 12.7751 18.9913 12.5311C20.1885 12.597 21.5112 13.0176 22.5544 12.6484C24.2623 12.044 25.8674 11.0386 27.3657 9.98824C28.5386 9.16601 28.8069 7.91025 28.3607 6.43121C27.6064 3.93107 28.7834 2.3603 30.5788 2.63075C30.3255 4.63206 30.1329 6.60772 29.7955 8.55835C29.6866 9.1881 29.2775 9.81634 28.8646 10.3324C28.0625 11.3349 27.035 12.1783 26.3575 13.2498C26.0583 13.7228 26.3064 14.609 26.4532 15.2752C26.5656 15.7854 26.9091 16.2447 27.1762 16.9975C27.9251 17.9293 28.6477 18.5904 29.3702 19.2514C30.2477 21.0393 31.1759 22.8055 31.9609 24.6331C32.1227 25.0098 31.7506 25.6159 31.4192 26.1526C30.0993 23.4523 28.5995 21.2744 25.1945 21.8137C25.3246 25.1474 22.6986 27.5888 20.203 26.5683C20.966 25.7648 21.7257 24.9648 22.4018 23.9578C21.4949 22.9807 20.7802 21.7683 19.8253 21.5338C17.9175 21.0654 15.7987 21.1758 13.3726 20.9879C13.8279 22.0266 14.208 22.67 14.5087 23.356Z" fill="#F4E2FF"/>
</svg>
